<svg width="128" height="56" viewBox="0 0 128 56" fill="none" xmlns="http://www.w3.org/2000/svg">
<path d="M14.3171 24.9078H6.50404L5.56226 26.3391H13.3753L14.3171 24.9078Z" fill="#2C46B1"/>
<path d="M22.8415 10.5962H15.0284L14.0866 12.0275H21.8997L22.8415 10.5962Z" fill="#2C46B1"/>
<path d="M91.737 24.9078H83.9239L82.982 26.3391H90.7951L91.737 24.9078Z" fill="#2C46B1"/>
<path d="M100.261 10.5962H92.4482L91.5064 12.0275H99.3194L100.261 10.5962Z" fill="#2C46B1"/>
<path d="M68.3506 30.5906H66.6038V32.1094H68.3506V30.5906Z" fill="#2C46B1"/>
<path d="M40.2032 33.1725L35.3437 33.1595L35.3466 32.1095H36.9613V30.5907H35.3506L35.3926 14.8902H38.8298L39.7717 13.4589H35.3964L35.4002 12.0276H38.3063L39.2482 10.5963H35.404L35.4116 7.74776L30.1686 7.73364L30.1659 7.73762L28.7056 7.73364L28.7024 7.73849L27.1929 7.73473L25.3091 10.5969H26.8215L25.8801 12.0277L25.8799 12.028H24.3672L23.4253 13.4592H24.9381L23.9965 14.8902H22.4834L14.0066 27.7719H9.78001L8.83818 29.2032H13.0647L10.5001 33.1006L10.4989 33.4971H7.65326L6.71143 34.9284H10.4944L10.4837 38.3623L27.1111 38.4082L27.1005 42.0849H21.0238L20.082 43.5162H27.0964L27.0882 46.3646L32.1919 46.3775V46.3788H38.566L39.5079 44.9475H35.3122L35.316 43.5162H37.7984L38.7402 42.0849H35.3199L35.3297 38.4294L37.2106 38.4345L37.2106 38.4305L38.7262 38.4346V38.4306L40.1891 38.4346L40.1908 37.791H41.5885L42.5304 36.3597H40.1947L40.1985 34.9284H43.1238L44.0657 33.4971H40.2024L40.2032 33.1725ZM27.1243 33.1373L20.6621 33.1199L23.3072 29.2032H23.3072L24.2739 27.7719L27.149 23.5145L27.1243 33.1373Z" fill="#2C46B1"/>
<path d="M117.623 33.1725L112.764 33.1595L112.766 32.1095H114.381V30.5907H112.77L112.812 14.8902H116.249L117.191 13.4589H112.816L112.82 12.0276H115.726L116.668 10.5963H112.824L112.831 7.74776L107.588 7.73364L107.586 7.73762L106.125 7.73364L106.122 7.73849L104.613 7.73473L102.729 10.5969H104.241L104.034 10.9118L103.3 12.0277L103.3 12.028H101.787L100.845 13.4592H102.358L101.416 14.8902H99.9029L91.4263 27.772H87.1996L86.2579 29.2033H90.4844L87.9198 33.1007L87.9186 33.4972H85.0729L84.1312 34.9285H87.9141L87.9035 38.3624L104.531 38.4083L104.52 42.085H98.4434L97.5017 43.5163H104.516L104.508 46.3648L109.612 46.3776V46.3789H115.986L116.927 44.9476H112.732L112.736 43.5163H115.218L116.16 42.085H112.74L112.749 38.4295L114.63 38.4346V38.4306L116.146 38.4347V38.4308L117.609 38.4347L117.61 37.7911H119.008L119.95 36.3598H117.614L117.618 34.9285H120.543L121.485 33.4972H117.622L117.623 33.1725ZM104.544 33.1373L98.0819 33.1199L100.727 29.2032L101.694 27.7719L104.569 23.5145L104.544 33.1373Z" fill="#2C46B1"/>
<path d="M81.3207 34.9283L82.2624 33.497H78.9506L78.9773 23.4778H82.0401L82.9819 22.0465H78.9811L78.9877 19.5983C78.9925 17.9397 78.6679 16.3437 78.0754 14.8901H79.554L80.4959 13.4588H77.3817C77.0981 12.9586 76.7808 12.4805 76.4332 12.0275H80.1611L81.1029 10.5962H75.1463C74.6623 10.1356 74.1411 9.71395 73.5872 9.33613C71.6285 7.99851 69.2466 7.21085 66.7053 7.20513C66.4532 7.20442 66.2025 7.21151 65.9535 7.22596C65.7255 7.21276 65.4961 7.20567 65.2653 7.20513C64.941 7.2042 64.619 7.21603 64.3 7.24008C64.0098 7.21876 63.7172 7.20742 63.4222 7.20671C61.7293 7.2018 60.1016 7.54369 58.625 8.16624C57.2404 8.75001 55.9874 9.57741 54.9169 10.596H51.4124L50.4706 12.0273H53.6297C53.4798 12.2226 53.3354 12.4223 53.1971 12.6267C51.9254 14.5023 51.1526 16.7648 51.0794 19.1839H48.3755L47.4336 20.6152H51.0708L51.0594 24.9077H44.7009L43.759 26.339H51.0555L51.0517 27.7718H47.9768L47.035 29.2032H51.0479L51.0365 33.497H47.3061L46.3642 34.9283H51.1145C51.2476 36.1131 51.5483 37.2518 51.9924 38.3126C52.5833 39.7242 53.4247 40.9995 54.4618 42.0848H52.7528L51.811 43.516H56.0919C56.2054 43.5992 56.3204 43.6807 56.4368 43.7602C58.3955 45.0978 60.7774 45.8854 63.3187 45.8911C63.6432 45.8921 63.9652 45.8802 64.2843 45.8561C64.5743 45.8775 64.867 45.8888 65.1618 45.8895C65.4141 45.8902 65.6649 45.8831 65.914 45.8687C66.1419 45.8819 66.3711 45.889 66.6018 45.8895C68.2947 45.8944 69.9225 45.5525 71.399 44.93C73.6151 43.9957 75.4942 42.4373 76.8269 40.4695C77.386 39.6449 77.8487 38.7455 78.1978 37.7908H81.0342L81.9761 36.3595H78.6252C78.7346 35.8917 78.8174 35.4139 78.8721 34.9282H81.3207V34.9283ZM70.2443 33.5499C70.2413 34.5125 70.0464 35.4149 69.6965 36.2401C69.1721 37.4766 68.2917 38.536 67.1882 39.2793C66.5262 39.7244 65.7898 40.0567 64.9969 40.2511C64.6308 40.1616 64.2767 40.0429 63.9359 39.8973C62.7039 39.3711 61.6484 38.4875 60.9077 37.38C60.1671 36.2707 59.7398 34.9532 59.7425 33.5112L59.754 29.2045H61.5036L62.4718 27.7733H59.7579L59.7799 19.5466C59.7828 18.5839 59.9777 17.6815 60.3276 16.8563C60.6354 16.1305 61.0661 15.4658 61.5924 14.8901H64.0583L65 13.459H63.4306C63.9301 13.191 64.4643 12.9833 65.0272 12.8453C65.3933 12.9348 65.7475 13.0535 66.0883 13.1991C67.3202 13.7254 68.3757 14.609 69.1164 15.7165C69.857 16.8258 70.2844 18.1432 70.2816 19.5853L70.2443 33.5499Z" fill="#2C46B1"/>
<path d="M40.2023 33.4971L40.2032 33.1725L35.3437 33.1595L35.3465 32.1095H36.9613V30.5907H35.3505L35.3925 14.8902H38.8298L39.7717 13.4589H35.3964L35.4002 12.0276H38.3063L39.2481 10.5963H35.404L35.4116 7.74776L30.1685 7.73364L30.1659 7.73762L28.7055 7.73364L28.7024 7.73849L26.8219 10.5963H28.2848L27.343 12.0276H25.88L25.8799 12.028L24.9381 13.4591H27.958L27.0164 14.8901H23.9965L17.4044 24.9079H18.575L17.6331 26.339H16.4626L15.5197 27.7719H11.1569L10.2151 29.2032H14.5779L12.0133 33.1006L12.0122 33.4971H9.03015L8.08832 34.9284H12.0083L11.9991 38.3626L28.6235 38.4074L28.6214 39.1785H30.1154V40.6973H28.6174L28.6137 42.0849L28.6099 43.5162L28.6023 46.3645L32.1919 46.3742V46.3788H38.566L39.5078 44.9475H35.3122L35.316 43.5162H37.7983L38.7401 42.0849H35.3199L35.3296 38.4293V38.4254L37.2106 38.4305L38.7262 38.4346V38.4306L40.1891 38.4346L40.1908 37.791H41.5885L42.5304 36.3597H40.1946L40.1984 34.9283H43.1238L44.0657 33.4971H40.2023ZM30.1538 32.1095H28.6404L28.6377 33.1414L27.1243 33.1373L20.6621 33.1199L23.3072 29.2032L24.2738 27.7719L27.1489 23.5145L28.6695 21.2629L28.6446 30.5906H30.1539V32.1095H30.1538Z" fill="#B12C4D"/>
<path d="M117.622 33.4971L117.623 33.1725L112.764 33.1595L112.766 32.1095H114.381V30.5907H112.77L112.812 14.8902H116.249L117.191 13.4589H112.816L112.82 12.0276H115.726L116.668 10.5963H112.824L112.831 7.74776L107.588 7.73364L107.586 7.73762L106.125 7.73364L106.122 7.73849L104.241 10.5969L104.242 10.5964H105.704L105.497 10.9118L104.763 12.0277H103.3L103.3 12.028L102.358 13.4592H105.378L104.436 14.8902H101.416L94.8241 24.9079H95.9947L95.0528 26.3391H93.8824L92.9395 27.7719H88.5767L87.6349 29.2033H91.9977L89.4331 33.1007L89.432 33.4972H86.45L85.5081 34.9284H89.4282L89.419 38.3626L106.043 38.4075L106.041 39.1786H107.535V40.6973H106.037L106.034 42.0849L106.03 43.5162L106.022 46.3645L109.612 46.3742V46.3788H115.986L116.928 44.9475H112.732L112.736 43.5162H115.218L116.16 42.0849H112.74L112.75 38.4294V38.4255L114.63 38.4305L116.146 38.4346V38.4306L117.609 38.4346L117.611 37.791H119.008L119.95 36.3597H117.614L117.618 34.9284H120.544L121.485 33.4971L117.622 33.4971ZM107.574 32.1095H106.06L106.057 33.1414L104.544 33.1373L98.0819 33.1199L100.727 29.2032L101.694 27.7719L104.569 23.5145L106.089 21.2629L106.064 30.5906H107.574L107.574 32.1095Z" fill="#B12C4D"/>
<path d="M82.0401 23.4781L82.982 22.0468H78.9812L78.9877 19.5985C78.9926 17.9399 78.6679 16.3439 78.0754 14.8903H79.554L80.4959 13.4591H77.3817C77.0981 12.9588 76.7808 12.4808 76.4332 12.0278H80.1611L81.1029 10.5965H75.1463C74.6624 10.1358 74.1411 9.71419 73.5872 9.33637C71.6285 7.99875 69.2466 7.2111 66.7053 7.20537C66.4532 7.20466 66.2025 7.21175 65.9535 7.2262C65.7255 7.213 65.4961 7.20592 65.2653 7.20537C64.941 7.20445 64.619 7.21628 64.3 7.24032C62.9543 7.34186 61.6618 7.66155 60.4682 8.16484C59.0828 8.74894 57.8291 9.57695 56.7583 10.5963H58.7268C58.2621 11.0387 57.8318 11.5173 57.4401 12.0276H55.4716C55.3221 12.2223 55.1783 12.4216 55.0403 12.6253C53.7682 14.5013 52.9954 16.7644 52.9226 19.1841H48.3754L47.4336 20.6154H52.914L52.8949 27.772H49.3538L48.4119 29.2033H52.891L52.8795 33.4967V33.4972H48.6829L47.7411 34.9284H52.9578C53.0911 36.1126 53.3917 37.2508 53.8356 38.3111C54.4267 39.7234 55.2687 40.9993 56.3065 42.085H59.8318C60.332 42.6082 60.8777 43.0874 61.4627 43.5162H57.9373C58.0501 43.5989 58.1643 43.6798 58.28 43.7588C60.0114 44.9412 62.0736 45.6937 64.2843 45.8564C64.5744 45.8777 64.867 45.889 65.1619 45.8897V45.8898C65.4142 45.8905 65.665 45.8834 65.9141 45.8689C66.1419 45.8821 66.3712 45.8892 66.6018 45.8897V45.8898C68.2948 45.8947 69.9225 45.5527 71.399 44.9302C73.6152 43.9959 75.4943 42.4375 76.827 40.4698C77.3861 39.6451 77.8487 38.7457 78.1979 37.7911H81.0343L81.9761 36.3598H78.6253C78.7347 35.8919 78.8175 35.4142 78.8722 34.9284H81.3207L82.2625 33.4972H78.9506L78.9774 23.478H82.0401V23.4781ZM65.9134 40.4099C65.6004 40.3774 65.2947 40.324 64.9969 40.2513C64.6309 40.1618 64.2767 40.0431 63.9359 39.8975C62.7039 39.3713 61.6484 38.4877 60.9077 37.3802C60.1672 36.2708 59.7398 34.9534 59.7426 33.5114L59.7541 29.2046H61.5037L62.4718 27.7735H59.7579L59.7799 19.5467C59.7829 18.5841 59.9777 17.6817 60.3276 16.8565C60.6354 16.1306 61.0661 15.4659 61.5924 14.8902H64.0583L65 13.4592H63.4306C63.9301 13.1912 64.4643 12.9835 65.0273 12.8455C65.3283 12.7717 65.6376 12.7179 65.954 12.6852C66.6518 12.7576 67.3134 12.9337 67.9315 13.1976C69.1635 13.7239 70.219 14.6076 70.9597 15.715C71.6236 16.7095 72.0355 17.8715 72.1118 19.1404H70.6404V20.6592H72.1221L72.0876 33.5484C72.0847 34.511 71.8898 35.4135 71.5399 36.2386C71.0155 37.4751 70.1351 38.5345 69.0316 39.2778C68.118 39.892 67.063 40.2912 65.9134 40.4099Z" fill="#B12C4D"/>
<path d="M38.7394 33.4971L38.7402 33.1726L33.8808 33.1595L33.9142 20.6591H32.4433V19.1404H33.9183L33.9373 12.0276H36.7711L37.7129 10.5963H33.9411L33.9487 7.74776L30.1659 7.73762L28.7055 7.73364L28.7024 7.73849L26.8219 10.5963H28.2848L27.343 12.0276H25.88L25.8799 12.028L24.9381 13.4591H27.958L27.0164 14.8901H23.9965L17.4044 24.9079H18.575L17.6331 26.3391H16.4626L15.5197 27.7719H11.1569L10.2151 29.2033H14.5779L12.0133 33.1007L12.0122 33.4972H9.03015L8.08832 34.9284H12.0083L11.9991 38.3626L28.6235 38.4075L28.6214 39.1786H30.1154V40.6973H28.6174L28.6137 42.0849L28.6099 43.5162L28.6023 46.3645L32.1919 46.3742V46.3788H37.0307L37.9725 44.9475H33.8492L33.853 43.5162H36.263L37.2049 42.0849H33.8569L33.8666 38.4254V38.4215L35.3296 38.4254L37.2105 38.4305L38.7261 38.4346V38.4306L38.7278 37.791H40.0532L40.1913 37.581L40.995 36.3596H38.7316L38.7354 34.9283H41.5885L42.5303 33.497H38.7394V33.4971ZM28.6404 32.1095L28.6377 33.1414V33.1454L27.1243 33.1413L19.1992 33.12L21.8442 29.2033H18.5676L19.4137 27.9175L19.5094 27.772H22.8108L27.1544 21.3401L28.6753 19.0881L28.6695 21.263L28.6445 30.5908H30.1538V32.1096H28.6404V32.1095Z" fill="#2C46B1"/>
<path d="M116.159 33.4971L116.16 33.1726L111.301 33.1595L111.334 20.6591H109.863V19.1404H111.338L111.357 12.0276H114.191L115.133 10.5963H111.361L111.369 7.74776L107.586 7.73762L106.125 7.73364L106.122 7.73849L104.241 10.5969L104.242 10.5964H105.705L105.497 10.9118L104.763 12.0277H103.3L103.3 12.028L102.358 13.4592H105.378L104.436 14.8902H101.416L94.8242 24.9079H95.9949L95.0529 26.3391H93.8825L92.9396 27.7719H88.5768L87.635 29.2033H91.9978L89.4332 33.1007L89.4321 33.4972H86.4501L85.5082 34.9284H89.4284L89.4191 38.3626L106.043 38.4075L106.041 39.1786H107.535V40.6973H106.037L106.034 42.0849L106.03 43.5162L106.022 46.3645L109.612 46.3742V46.3788H114.451L115.393 44.9475H111.269L111.273 43.5162H113.683L114.625 42.0849H111.277L111.287 38.4254V38.4215L112.75 38.4254L114.631 38.4305L116.146 38.4346V38.4306L116.148 37.791H117.473L117.611 37.581L118.415 36.3596H116.152L116.155 34.9283H119.008L119.95 33.497H116.159V33.4971ZM106.06 32.1095L106.057 33.1414V33.1454L104.544 33.1413L96.6189 33.12L99.264 29.2033H95.9873L96.8334 27.9175L96.9291 27.772H100.231L104.574 21.3401L106.095 19.0881L106.089 21.263L106.064 30.5908H107.574V32.1096H106.06V32.1095Z" fill="#2C46B1"/>
<path d="M77.4322 34.9283H79.7854L80.7272 33.497H77.5106L77.5374 23.4778H76.667L76.6708 22.0465H77.5412L77.5478 19.5983C77.5526 17.9397 77.2279 16.3437 76.6355 14.8901H75.6834C75.4716 14.3952 75.2289 13.9173 74.9578 13.4588H75.9417C75.6581 12.9586 75.3409 12.4805 74.9932 12.0275H78.6259L79.5677 10.5962H73.7871V10.6737C73.2806 10.1828 72.7321 9.73511 72.1473 9.33613C70.3665 8.11999 68.2358 7.35852 65.9536 7.22596C65.7256 7.21276 65.4962 7.20567 65.2654 7.20513C64.941 7.2042 64.6191 7.21603 64.3001 7.24008C62.9544 7.34161 61.6619 7.66131 60.4683 8.1646C59.0829 8.7487 57.8292 9.5767 56.7583 10.596H58.7269C58.2621 11.0385 57.8319 11.5171 57.4402 12.0273H55.4717C55.3222 12.2221 55.1783 12.4213 55.0403 12.625C53.7683 14.5011 52.9955 16.7641 52.9227 19.1839H48.3755L47.4337 20.6152H52.9141L52.8949 27.7717H49.3538L48.4119 29.2031H52.891L52.8795 33.4965V33.4969H48.683L47.7411 34.9282H52.9578C53.0911 36.1124 53.3918 37.2505 53.8356 38.3109C54.4267 39.7231 55.2687 40.999 56.3065 42.0848H59.8318C60.332 42.608 60.8777 43.0871 61.4627 43.516H57.9373C58.0501 43.5987 58.1643 43.6796 58.28 43.7585C60.0114 44.941 62.0737 45.6935 64.2843 45.8561C64.5744 45.8775 64.867 45.8888 65.1619 45.8895C65.4142 45.8902 65.665 45.8831 65.9141 45.8687C67.3366 45.7861 68.7025 45.4597 69.9591 44.93C72.1752 43.9957 74.0543 42.4373 75.387 40.4695C75.9461 39.6449 76.4087 38.7455 76.7579 37.7908H79.4991L80.4408 36.3595H77.1853C77.2947 35.8918 77.3775 35.414 77.4322 34.9283ZM62.4959 39.8974C61.2639 39.3711 60.2085 38.4875 59.4678 37.38C58.7272 36.2707 58.2998 34.9532 58.3026 33.5112L58.3141 29.2045H57.7721L57.7753 27.7733H58.318L58.3399 19.5466C58.3429 18.5839 58.5378 17.6815 58.8877 16.8563C59.412 15.6199 60.2925 14.5605 61.396 13.8171C61.5829 13.6914 61.7759 13.575 61.9743 13.4678L61.98 13.459H61.9905C62.6981 13.0793 63.4757 12.8209 64.3051 12.7097C64.6135 12.6683 64.929 12.6471 65.2508 12.6477C65.489 12.6484 65.7234 12.661 65.9539 12.685C66.6518 12.7574 67.3134 12.9335 67.9315 13.1975C69.1634 13.7238 70.2189 14.6074 70.9596 15.7148C71.6236 16.7093 72.0355 17.8713 72.1118 19.1402H70.6403V20.659H72.122L72.0876 33.5482C72.0846 34.5108 71.8897 35.4133 71.5398 36.2384C71.0155 37.4749 70.135 38.5343 69.0316 39.2776C68.1182 39.8917 67.0631 40.291 65.9135 40.4097C65.6719 40.4347 65.4262 40.4475 65.1767 40.447H65.1766C64.8712 40.4461 64.5719 40.4255 64.2792 40.3867C63.6526 40.3036 63.0563 40.1366 62.4959 39.8974ZM73.4113 32.1094V30.5906H75.1581V32.1094H73.4113Z" fill="#2C46B1"/>
<path d="M36.0303 23.4779H43.8434L44.7851 22.0466H36.9721L36.0303 23.4779Z" fill="#B12C4D"/>
<path d="M113.45 23.4779H121.263L122.205 22.0466H114.392L113.45 23.4779Z" fill="#B12C4D"/>
<path d="M17.9917 19.1841H10.1787L9.23688 20.6154H17.0499L17.9917 19.1841Z" fill="#2C46B1"/>
<path d="M95.4115 19.1841H87.5984L86.6566 20.6154H94.4696L95.4115 19.1841Z" fill="#2C46B1"/>
</svg>
